<svg width="104" height="36" viewBox="0 0 104 36" fill="none" xmlns="http://www.w3.org/2000/svg">
<path fill-rule="evenodd" clip-rule="evenodd" d="M98.2551 16.2226C98.9294 16.371 99.6101 16.5801 100.297 16.8524C100.983 17.1247 101.603 17.4834 102.158 17.9274C102.712 18.3726 103.157 18.9159 103.494 19.5586C103.832 20.2025 104 20.9678 104 21.857C104 23.0197 103.771 24.0018 103.314 24.8058C102.856 25.6085 102.26 26.2576 101.525 26.7519C100.79 27.2461 99.9659 27.6049 99.0502 27.8269C98.1344 28.0501 97.2187 28.1598 96.3042 28.1598C94.8337 28.1598 93.0061 27.8501 91.6999 27.1313C90.2717 26.3454 89.7605 25.8937 89.2661 25.3168C89.0374 25.0497 88.9758 24.6819 89.2147 24.4238L90.9537 21.9589C91.1823 21.7111 91.5702 21.4724 91.8463 21.666C92.4628 22.0996 93.1961 22.6377 93.7715 22.932C94.9493 23.5359 96.434 23.7837 97.6554 23.172C98.1254 22.9384 98.3502 22.4764 98.3245 22.1048C98.2873 21.5382 98.0381 21.2027 97.4601 20.9304C96.8822 20.6594 95.9793 20.3742 94.7502 20.0774C94.1234 19.9302 93.4967 19.7328 92.8712 19.485C92.2444 19.2372 91.6845 18.9043 91.1913 18.4836C90.6968 18.0642 90.2935 17.5441 89.9801 16.9259C89.6668 16.3091 89.5101 15.567 89.5101 14.7024C89.5101 13.59 89.7387 12.644 90.1972 11.8658C90.6544 11.0864 91.2452 10.4514 91.9683 9.95588C92.6901 9.46161 93.4915 9.09769 94.37 8.86281C95.2498 8.62794 96.1231 8.51051 96.9901 8.51051C98.3399 8.51051 99.5087 8.69505 100.78 9.22932C101.865 9.68487 102.4 9.98298 103.191 10.6295C103.468 10.8567 103.494 11.2748 103.247 11.5368L101.445 13.9745C101.216 14.2726 100.861 14.2533 100.582 14.0933C100.125 13.8326 99.8272 13.6571 99.4162 13.4428C98.9962 13.2235 98.5467 13.0583 98.0818 12.9705C97.1802 12.8002 96.3723 12.826 95.6659 13.1602C95.1959 13.3835 94.9672 13.8248 94.9672 14.3681C94.9672 14.8869 95.2254 15.2586 95.7443 15.4806C96.2619 15.7025 97.0992 15.9503 98.2551 16.2226ZM81.2479 30.3485C80.747 31.6119 80.3001 32.3424 79.8095 33.0676C78.0897 35.6138 74.8686 36.2294 72.2935 35.6732C71.0862 35.3209 70.1191 34.9118 69.6234 34.3336C69.3948 34.0678 69.3344 33.7 69.572 33.4419L71.0914 30.7163C71.32 30.4686 71.7078 30.2285 71.9827 30.4221C72.2614 30.6183 72.9023 30.9112 73.3813 30.9112C74.1006 30.8699 74.9624 30.8351 75.828 28.8386C76.1992 27.8617 76.1863 27.2061 75.6392 25.7685L69.0981 9.95588C68.9298 9.55066 69.2265 9.10285 69.6632 9.10285H74.8827C75.1447 9.10285 75.3785 9.27062 75.4633 9.52098L79.3317 20.9678H79.4409L82.8867 9.54033C82.9651 9.28094 83.2027 9.10285 83.4724 9.10285H88.0357C88.4646 9.10285 88.76 9.53517 88.6072 9.9391L81.2479 30.3485ZM65.1282 26.7519C64.3935 27.2461 63.5677 27.6049 62.6533 27.8269C61.7375 28.0501 60.8218 28.1598 59.9061 28.1598C58.4368 28.1598 56.6092 27.8501 55.303 27.1313C53.8735 26.3454 53.3636 25.8937 52.8692 25.3168C52.6405 25.0497 52.5789 24.6819 52.8165 24.4238L54.5568 21.9589C54.7854 21.7111 55.1733 21.4724 55.4481 21.666C56.0659 22.0996 56.7992 22.6377 57.3733 22.932C58.5524 23.5359 60.0358 23.7837 61.2585 23.172C61.7285 22.9384 61.9533 22.4764 61.9276 22.1048C61.8904 21.5382 61.6412 21.2027 61.0632 20.9304C60.4853 20.6594 59.5811 20.3742 58.3533 20.0774C57.7265 19.9302 57.0998 19.7328 56.4743 19.485C55.8475 19.2372 55.2876 18.9043 54.7944 18.4836C54.2999 18.0642 53.8966 17.5441 53.5833 16.9259C53.2699 16.3091 53.1132 15.567 53.1132 14.7024C53.1132 13.59 53.3418 12.644 53.8003 11.8658C54.2575 11.0864 54.8483 10.4514 55.5714 9.95588C56.2932 9.46161 57.0934 9.09769 57.9731 8.86281C58.8529 8.62794 59.7262 8.51051 60.5932 8.51051C61.9417 8.51051 63.1118 8.69505 64.3833 9.22932C65.4685 9.68487 66.0028 9.98298 66.794 10.6295C67.0701 10.8567 67.0971 11.2748 66.8505 11.5368L65.0486 13.9745C64.8174 14.2726 64.4642 14.2533 64.1855 14.0933C63.7282 13.8326 63.429 13.6571 63.0193 13.4428C62.5993 13.2235 62.1498 13.0583 61.6849 12.9705C60.7833 12.8002 59.9754 12.826 59.269 13.1602C58.799 13.3835 58.5703 13.8248 58.5703 14.3681C58.5703 14.8869 58.8285 15.2586 59.3461 15.4806C59.865 15.7025 60.7023 15.9503 61.8582 16.2226C62.5325 16.371 63.2132 16.5801 63.8991 16.8524C64.5862 17.1247 65.2065 17.4834 65.7614 17.9274C66.3149 18.3726 66.7593 18.9159 67.0971 19.5586C67.4349 20.2025 67.6031 20.9678 67.6031 21.857C67.6031 23.0197 67.3745 24.0018 66.9173 24.8058C66.4588 25.6085 65.8628 26.2576 65.1282 26.7519ZM48.9596 27.5675H44.7637C44.4246 27.5675 44.1511 27.2913 44.1511 26.9519V25.602H44.0432C43.5847 26.3686 42.8924 26.9622 41.9651 27.3816C41.0378 27.8024 40.0322 28.0127 38.9482 28.0127C38.2251 28.0127 37.4776 27.9133 36.707 27.7159C35.9364 27.5184 35.2313 27.1971 34.593 26.7519C33.9547 26.3067 33.4307 25.713 33.021 24.9723C32.6113 24.2302 32.4071 23.3165 32.4071 22.2286C32.4071 20.8942 32.7628 19.818 33.4731 19.0024C34.1833 18.1868 35.099 17.557 36.2203 17.1118C37.3402 16.6678 38.586 16.371 39.959 16.2226C41.3319 16.0742 42.6689 15.9993 43.97 15.9993V15.7025C43.97 14.7888 43.6566 14.1152 43.0311 13.6816C42.4044 13.2506 41.6338 13.0337 40.718 13.0337C39.8742 13.0337 39.0612 13.2183 38.2791 13.59C37.6896 13.8687 36.8714 14.3372 36.4116 14.7011C36.1599 14.8998 35.8003 14.8714 35.5845 14.6327L33.8263 12.244C33.5925 11.9859 33.6182 11.5845 33.8815 11.3561C34.8319 10.5314 35.3533 10.0398 36.978 9.28868C38.342 8.65762 39.8267 8.51051 41.296 8.51051C42.8141 8.51051 44.0971 8.7015 45.1451 9.08478C46.1932 9.46807 47.0421 10.0617 47.692 10.8644C48.3431 11.6684 48.8184 12.6814 49.1202 13.9048C49.4207 15.1282 49.571 16.5801 49.571 18.2616V26.9519C49.571 27.2913 49.2974 27.5675 48.9596 27.5675ZM44.1511 19.9186C44.1511 19.6992 43.9738 19.5211 43.7568 19.5211H43.392C42.7421 19.5211 42.0846 19.5534 41.4231 19.6141C40.7604 19.676 40.1696 19.7947 39.652 19.9664C39.1344 20.1406 38.7067 20.3922 38.3703 20.7265C38.0325 21.0607 37.8642 21.4995 37.8642 22.0428C37.8642 22.39 37.9413 22.6855 38.0993 22.9333C38.2547 23.1797 38.4537 23.3785 38.6952 23.5256C38.9354 23.674 39.2128 23.7798 39.5262 23.8418C39.8383 23.9024 40.1401 23.9334 40.4291 23.9334C41.6338 23.9334 42.5546 23.594 43.1929 22.9139C43.8313 22.2351 44.1511 21.3137 44.1511 20.1522V19.9186ZM26.7906 25.4498C25.8749 26.3028 24.8153 26.9648 23.6106 27.4346C22.4059 27.903 21.1177 28.1379 19.7435 28.1379C18.3949 28.1379 17.1119 27.903 15.8956 27.4346C14.6793 26.9648 13.6197 26.3028 12.7156 25.4498C11.8127 24.5967 11.096 23.5592 10.5656 22.3358C10.0352 21.1123 9.77058 19.747 9.77058 18.2384C9.77058 16.7311 10.0352 15.3722 10.5656 14.1604C11.096 12.9499 11.8127 11.9239 12.7156 11.0825C13.6197 10.2424 14.6793 9.5997 15.8956 9.15447C17.1119 8.71054 18.3949 8.48728 19.7435 8.48728C21.1177 8.48728 22.4059 8.71054 23.6106 9.15447C24.8153 9.5997 25.8749 10.2424 26.7906 11.0825C27.7051 11.9239 28.4282 12.9499 28.9586 14.1604C29.4878 15.3722 29.7536 16.7311 29.7536 18.2384C29.7536 19.747 29.4878 21.1123 28.9586 22.3358C28.4282 23.5592 27.7051 24.5967 26.7906 25.4498ZM19.7615 13.5164C17.1568 13.5164 15.0454 15.6406 15.0454 18.2616C15.0454 20.4245 16.4941 22.2286 18.4604 22.8003C18.865 22.932 19.2952 23.021 19.7807 23.021C20.3702 23.021 20.8853 22.9036 21.3553 22.7087C23.1727 22.0493 24.4788 20.3161 24.4788 18.2616C24.4788 15.6406 22.3674 13.5164 19.7615 13.5164ZM2.87881 7.14127C1.4776 6.87285 0.331968 5.71913 0.0661094 4.3086C-0.410381 1.77017 1.76015 -0.41338 4.2826 0.0666903C5.68381 0.333826 6.83073 1.48625 7.09787 2.89678C7.5795 5.43651 5.40511 7.62522 2.87881 7.14127ZM1.17449 9.10285H5.87646C6.21424 9.10285 6.48909 9.37902 6.48909 9.71972V26.9519C6.48909 27.2913 6.21424 27.5675 5.87646 27.5675H1.17449C0.836713 27.5675 0.561864 27.2913 0.561864 26.9519V9.71972C0.561864 9.37902 0.836713 9.10285 1.17449 9.10285Z" fill="#333333"/>
</svg>
